<?xml version="1.0" encoding="utf-8"?>
<!-- Generator: Adobe Illustrator 22.0.0, SVG Export Plug-In . SVG Version: 6.00 Build 0)  -->
<svg version="1.1" id="Layer_1" xmlns="http://www.w3.org/2000/svg" xmlns:xlink="http://www.w3.org/1999/xlink" x="0px" y="0px"
	 viewBox="0 0 142.3 40" style="enable-background:new 0 0 142.3 40;" xml:space="preserve">
<style type="text/css">
	.st0{opacity:0.3185;fill:#FFFFFF;enable-background:new    ;}
	.st1{fill:#FFFFFF;}
</style>
<title>Group 7</title>
<desc>Created with Sketch.</desc>
<g id="Symbols">
	<g id="Group-7">
		<g>
			<circle id="Oval" class="st0" cx="20" cy="20" r="17.3"/>
			<g>
				<path class="st1" d="M19.1,22.2c0,0.7-0.2,1.3-0.5,1.8c-0.3,0.5-0.9,1-1.6,1.3c-0.7,0.3-1.5,0.4-2.4,0.4c-1.1,0-2-0.2-2.8-0.6
					c-0.5-0.3-1-0.7-1.2-1.2s-0.5-1-0.5-1.5c0-0.3,0.1-0.5,0.3-0.7c0.2-0.2,0.4-0.3,0.7-0.3c0.3,0,0.4,0.1,0.6,0.3
					c0.2,0.2,0.3,0.3,0.4,0.7c0.2,0.3,0.3,0.7,0.4,0.9c0.2,0.2,0.4,0.4,0.7,0.6c0.3,0.2,0.7,0.3,1.2,0.3c0.7,0,1.2-0.2,1.6-0.4
					c0.4-0.3,0.6-0.7,0.6-1.2c0-0.3-0.1-0.7-0.3-0.9c-0.3-0.3-0.5-0.4-0.9-0.5c-0.3-0.1-0.9-0.3-1.5-0.3c-0.8-0.2-1.5-0.4-2-0.7
					c-0.5-0.3-1-0.6-1.3-1c-0.3-0.4-0.3-1.1-0.3-1.8c0-0.6,0.2-1.1,0.5-1.6c0.3-0.5,0.8-0.9,1.5-1.1s1.4-0.3,2.2-0.3
					c0.7,0,1.3,0.1,1.8,0.3c0.5,0.2,1,0.4,1.2,0.7c0.3,0.3,0.6,0.6,0.7,0.9c0.2,0.3,0.3,0.6,0.3,0.9c0,0.3-0.1,0.5-0.3,0.7
					c-0.2,0.2-0.4,0.3-0.7,0.3c-0.3,0-0.4-0.1-0.6-0.2c-0.2-0.1-0.3-0.3-0.4-0.6c-0.2-0.4-0.4-0.8-0.7-1c-0.3-0.2-0.8-0.3-1.4-0.3
					c-0.6,0-1,0.1-1.4,0.3c-0.3,0.3-0.5,0.6-0.5,1c0,0.3,0.1,0.4,0.2,0.6c0.1,0.2,0.3,0.3,0.5,0.4c0.3,0.2,0.4,0.2,0.6,0.3
					c0.3,0.1,0.6,0.2,1.1,0.3c0.6,0.2,1.2,0.3,1.7,0.5c0.5,0.2,1,0.4,1.3,0.6c0.3,0.3,0.6,0.6,0.9,1C19.3,21.1,19.1,21.6,19.1,22.2z
					"/>
				<path class="st1" d="M28.5,16.2h-5.1V19H28c0.3,0,0.6,0.1,0.8,0.3c0.2,0.2,0.3,0.3,0.3,0.6c0,0.3-0.1,0.4-0.3,0.6
					c-0.2,0.2-0.4,0.3-0.8,0.3h-4.7v3.2h5.3c0.3,0,0.6,0.1,0.8,0.3c0.2,0.2,0.3,0.3,0.3,0.7c0,0.3-0.1,0.5-0.3,0.6
					c-0.2,0.1-0.4,0.3-0.8,0.3h-6.1c-0.5,0-0.9-0.1-1-0.3s-0.3-0.6-0.3-1v-8.4c0-0.3,0.1-0.6,0.2-0.8c0.1-0.2,0.3-0.3,0.4-0.4
					s0.4-0.2,0.8-0.2h6c0.3,0,0.6,0.1,0.8,0.3c0.2,0.2,0.3,0.3,0.3,0.6c0,0.3-0.1,0.5-0.3,0.6C29.1,16.1,28.8,16.2,28.5,16.2z"/>
			</g>
		</g>
	</g>
</g>
<g>
	<path class="st1" d="M66,22.2c0,0.7-0.2,1.3-0.5,1.8c-0.3,0.5-0.8,0.9-1.5,1.3c-0.6,0.3-1.5,0.4-2.3,0.4c-1.1,0-2-0.2-2.7-0.6
		c-0.5-0.3-0.9-0.7-1.2-1.2c-0.3-0.5-0.4-0.9-0.4-1.5c0-0.3,0.1-0.5,0.3-0.7s0.4-0.3,0.7-0.3s0.4,0.1,0.6,0.3
		c0.2,0.1,0.3,0.4,0.4,0.7c0.1,0.4,0.3,0.6,0.4,0.9c0.2,0.3,0.4,0.4,0.7,0.6c0.3,0.1,0.7,0.3,1.1,0.3c0.6,0,1.2-0.1,1.6-0.4
		c0.4-0.3,0.6-0.7,0.6-1.1c0-0.4-0.1-0.6-0.3-0.9c-0.3-0.3-0.5-0.4-0.9-0.5c-0.4-0.1-0.8-0.3-1.4-0.4c-0.8-0.2-1.5-0.4-2-0.6
		c-0.5-0.3-0.9-0.6-1.3-1c-0.3-0.4-0.4-0.9-0.4-1.6s0.2-1.1,0.5-1.6c0.3-0.4,0.8-0.8,1.5-1.1c0.6-0.3,1.4-0.4,2.2-0.4
		c0.7,0,1.3,0.1,1.8,0.3c0.5,0.2,0.9,0.4,1.2,0.7c0.3,0.3,0.6,0.6,0.7,0.9c0.1,0.3,0.3,0.6,0.3,0.9s-0.1,0.5-0.3,0.7
		c-0.2,0.2-0.4,0.3-0.7,0.3c-0.3,0-0.4-0.1-0.6-0.2c-0.1-0.1-0.3-0.3-0.4-0.6c-0.2-0.4-0.4-0.8-0.7-0.9c-0.3-0.3-0.8-0.4-1.3-0.4
		c-0.6,0-1,0.1-1.4,0.4c-0.4,0.3-0.5,0.6-0.5,0.9c0,0.2,0.1,0.4,0.2,0.6c0.1,0.2,0.3,0.3,0.5,0.4c0.2,0.1,0.4,0.2,0.6,0.3
		s0.6,0.2,1.1,0.3c0.6,0.1,1.2,0.3,1.7,0.5c0.5,0.2,0.9,0.4,1.3,0.6c0.4,0.3,0.6,0.6,0.8,0.9C65.9,21.2,66,21.6,66,22.2z"/>
	<path class="st1" d="M68,24.4v-8.7c0-0.4,0.1-0.8,0.3-1c0.2-0.2,0.4-0.3,0.8-0.3c0.3,0,0.6,0.1,0.8,0.3c0.2,0.3,0.3,0.6,0.3,1v8.7
		c0,0.4-0.1,0.8-0.3,1c-0.3,0.3-0.5,0.4-0.8,0.4c-0.3,0-0.6-0.1-0.8-0.3C68.1,25.1,68,24.8,68,24.4z"/>
	<path class="st1" d="M82.1,22c0,0.4-0.1,0.8-0.3,1.1c-0.2,0.4-0.4,0.8-0.8,1.2c-0.4,0.4-0.8,0.7-1.4,0.9c-0.6,0.3-1.3,0.4-2,0.4
		c-0.6,0-1.1-0.1-1.6-0.2c-0.5-0.1-0.9-0.3-1.3-0.5c-0.4-0.3-0.8-0.6-1.1-0.9c-0.3-0.3-0.6-0.8-0.8-1.1c-0.2-0.4-0.4-0.9-0.4-1.4
		c-0.1-0.4-0.2-0.9-0.2-1.5c0-0.9,0.1-1.7,0.4-2.4c0.3-0.7,0.6-1.3,1.1-1.8c0.5-0.5,1.1-0.9,1.7-1.1c0.6-0.3,1.3-0.4,2.1-0.4
		c0.9,0,1.7,0.2,2.4,0.5c0.7,0.4,1.2,0.8,1.6,1.3c0.4,0.5,0.6,1,0.6,1.5c0,0.3-0.1,0.5-0.3,0.7s-0.4,0.3-0.6,0.3
		c-0.3,0-0.5-0.1-0.6-0.2c-0.1-0.1-0.3-0.4-0.5-0.7c-0.3-0.6-0.6-0.9-1-1.2s-0.9-0.4-1.5-0.4c-0.9,0-1.6,0.4-2.2,1.1
		c-0.6,0.7-0.8,1.7-0.8,3c0,0.9,0.1,1.6,0.4,2.2s0.6,1,1,1.3s0.9,0.4,1.5,0.4c0.6,0,1.2-0.2,1.6-0.5s0.8-0.8,1-1.4
		c0.1-0.3,0.2-0.5,0.4-0.7c0.1-0.2,0.4-0.3,0.7-0.3c0.3,0,0.5,0.1,0.7,0.3C82.2,21.6,82.1,21.8,82.1,22z"/>
	<path class="st1" d="M91.4,16.2h-5v2.7H91c0.3,0,0.6,0.1,0.8,0.3c0.2,0.2,0.3,0.4,0.3,0.6s-0.1,0.4-0.3,0.6
		c-0.2,0.1-0.4,0.3-0.8,0.3h-4.6v3.2h5.2c0.4,0,0.6,0.1,0.8,0.3c0.2,0.2,0.3,0.4,0.3,0.6c0,0.3-0.1,0.4-0.3,0.6
		c-0.2,0.2-0.4,0.3-0.8,0.3h-6.1c-0.5,0-0.8-0.1-1.1-0.3c-0.2-0.2-0.3-0.6-0.3-1.1v-8.4c0-0.3,0.1-0.6,0.1-0.8
		c0.1-0.2,0.3-0.4,0.4-0.4c0.2-0.1,0.4-0.1,0.8-0.1h5.9c0.4,0,0.6,0.1,0.8,0.3c0.2,0.1,0.3,0.4,0.3,0.6c0,0.3-0.1,0.4-0.3,0.6
		C92,16.1,91.7,16.2,91.4,16.2z"/>
	<path class="st1" d="M101.7,16.2h-5v2.7h4.6c0.3,0,0.6,0.1,0.8,0.3c0.2,0.2,0.3,0.4,0.3,0.6s-0.1,0.4-0.3,0.6
		c-0.2,0.1-0.4,0.3-0.8,0.3h-4.6v3.2h5.2c0.4,0,0.6,0.1,0.8,0.3c0.2,0.2,0.3,0.4,0.3,0.6c0,0.3-0.1,0.4-0.3,0.6
		c-0.2,0.2-0.4,0.3-0.8,0.3h-6.1c-0.5,0-0.8-0.1-1.1-0.3c-0.2-0.2-0.3-0.6-0.3-1.1v-8.4c0-0.3,0.1-0.6,0.1-0.8
		c0.1-0.2,0.3-0.4,0.4-0.4c0.2-0.1,0.4-0.1,0.8-0.1h5.9c0.4,0,0.6,0.1,0.8,0.3c0.2,0.1,0.3,0.4,0.3,0.6c0,0.3-0.1,0.4-0.3,0.6
		C102.2,16.1,102,16.2,101.7,16.2z"/>
</g>
</svg>
